<?xml version="1.0" encoding="UTF-8" standalone="no"?>
<svg
   xmlns:dc="http://purl.org/dc/elements/1.1/"
   xmlns:cc="http://creativecommons.org/ns#"
   xmlns:rdf="http://www.w3.org/1999/02/22-rdf-syntax-ns#"
   xmlns:svg="http://www.w3.org/2000/svg"
   xmlns="http://www.w3.org/2000/svg"
   xmlns:sodipodi="http://sodipodi.sourceforge.net/DTD/sodipodi-0.dtd"
   xmlns:inkscape="http://www.inkscape.org/namespaces/inkscape"
   version="1.1"
   id="Contours"
   x="0px"
   y="0px"
   width="414.586731px"
   height="644.892090px"
   viewBox="0.000000 0.000000 414.586731 644.892090"
   enable-background="new 0 0 414.586731 644.892090"
   xml:space="preserve"
   stroke="black"
   fill="none"
   stroke-linecap="round"
   stroke-linejoin="round"
   inkscape:version="0.91 r13725"
   sodipodi:docname="csci-club-graphic-green.svg"><metadata
     id="metadata79"><rdf:RDF><cc:Work
         rdf:about=""><dc:format>image/svg+xml</dc:format><dc:type
           rdf:resource="http://purl.org/dc/dcmitype/StillImage" /><dc:title></dc:title></cc:Work></rdf:RDF></metadata><defs
     id="defs77" /><sodipodi:namedview
     pagecolor="#ffffff"
     bordercolor="#666666"
     borderopacity="1"
     objecttolerance="10"
     gridtolerance="10"
     guidetolerance="10"
     inkscape:pageopacity="0"
     inkscape:pageshadow="2"
     inkscape:window-width="1102"
     inkscape:window-height="964"
     id="namedview75"
     showgrid="false"
     inkscape:zoom="1.0350705"
     inkscape:cx="148.54069"
     inkscape:cy="359.80495"
     inkscape:window-x="1948"
     inkscape:window-y="14"
     inkscape:window-maximized="0"
     inkscape:current-layer="Contours" /><path
     class="selected"
     fill="#000000"
     opacity="1.000000"
     stroke="none"
     d=" M363.728149 587.457458 C364.419342 587.470581 364.444458 586.150513 363.753265 586.137390 C363.062073 586.124207 363.036957 587.444275 363.728149 587.457458 z"
     id="path3"
     style="fill:#00ff00;fill-opacity:1" /><path
     class="selected"
     fill="#000000"
     opacity="1.000000"
     stroke="none"
     d=" M330.382904 525.278076 C329.986633 523.861633 330.251862 521.620972 331.705627 521.843994 C332.139587 522.690430 332.586090 523.637329 332.340698 524.556274 C332.095276 525.475281 330.762299 526.070557 330.166809 525.328857 z"
     id="path5"
     style="fill:#00ff00;fill-opacity:1" /><path
     class="selected"
     fill="#000000"
     opacity="1.000000"
     stroke="none"
     d=" M154.944519 246.812042 C148.850128 246.811646 140.613068 244.733032 140.904785 238.645615 C143.619080 182.000641 142.662537 125.180023 138.043152 68.658501 C137.366089 60.374416 148.565613 57.249031 156.875580 57.079762 C231.478973 55.560158 306.082336 54.040546 380.685730 52.520935 C384.517609 52.442886 389.765533 53.740082 389.490540 57.562855 C385.361938 114.958221 384.866364 172.614655 388.007812 230.072510 C388.307281 235.549911 388.140503 242.085831 383.557220 245.100021 C381.016968 246.770645 377.780273 246.826248 374.739899 246.826050 C301.474762 246.821381 228.209656 246.816711 154.944519 246.812042 M362.769196 62.738529 C293.467407 63.639141 224.165619 64.539764 154.863831 65.440376 C153.194183 65.462074 150.839874 66.905212 152.008789 68.097618 C157.996277 121.459373 159.349365 175.340302 156.047821 228.935318 C155.682922 234.858734 163.521240 237.197418 169.447693 237.509430 C236.734009 241.051987 304.237213 240.470291 371.452515 235.768692 C372.831451 183.114807 374.210388 130.460907 375.589325 77.807022 C375.717987 72.894905 375.423981 67.112816 371.346436 64.370735 C368.891663 62.719921 365.727173 62.700089 362.769196 62.738529 z"
     id="path7"
     style="fill:#00ff00;fill-opacity:1" /><path
     class="selected"
     fill="#000000"
     opacity="1.000000"
     stroke="none"
     d=" M398.262238 468.665680 C399.802032 469.607880 398.843842 472.203766 397.191010 472.929657 C395.538177 473.655548 393.624268 473.339783 391.855377 473.700073 C385.101410 475.075714 384.204102 484.231812 384.685150 491.107666 C386.744293 520.539490 384.971710 550.237244 379.426208 579.215210 C377.574066 588.893433 376.490173 601.363892 385.095032 606.165466 C345.937439 613.833557 306.025757 617.645752 266.124603 617.529053 C263.923218 617.522644 261.533905 617.440186 259.825623 616.051758 C257.393005 614.074524 257.405426 610.424866 257.629944 607.298096 C260.612457 565.761353 263.594971 524.224609 266.577484 482.687836 C266.766449 480.056244 267.047241 477.203827 268.843475 475.271332 C270.718262 473.254303 273.699219 472.819183 276.436401 472.517334 C316.861694 468.059479 357.636047 466.770325 398.262238 468.665680 M376.480347 477.727600 C375.681519 476.740692 374.224213 476.681122 372.954742 476.704132 C343.827911 477.232361 314.701080 477.760590 285.574249 478.288818 C283.398560 478.328278 281.128387 478.391235 279.210907 479.420074 C275.142303 481.603058 274.333435 486.984955 274.001740 491.590271 C271.290771 529.230103 268.579834 566.869934 265.868866 604.509766 C265.760864 606.009521 265.803101 607.822388 267.083771 608.610413 C267.823090 609.065308 268.755035 609.012329 269.620453 608.944458 C299.485901 606.600464 329.351379 604.256531 359.216858 601.912598 C361.707214 601.717163 364.344238 601.468933 366.349304 599.979065 C369.234131 597.835388 369.906799 593.865967 370.334625 590.297424 C374.703552 553.856445 376.964661 517.162842 377.102875 480.461182 C377.106476 479.506958 377.080719 478.469269 376.480347 477.727600 z"
     id="path11"
     style="fill:#00ff00;fill-opacity:1" /><path
     class="selected"
     fill="#000000"
     opacity="1.000000"
     stroke="none"
     d=" M131.402802 5.618699 C186.922180 3.832459 242.441559 2.046218 297.960938 0.259978 C309.976044 -0.126587 322.173523 -0.494953 333.838104 2.411809 C346.072632 5.460599 357.120300 11.960939 367.972900 18.379702 C383.283936 27.435425 399.562622 37.569740 406.409943 53.987679 C411.625214 66.492462 410.449097 80.623863 409.085114 94.103783 C406.374512 120.892082 403.270142 147.838287 405.439301 174.675858 C408.303589 210.113586 419.538544 249.093857 400.146851 278.893158 C382.761078 281.157074 365.375275 283.420959 347.989502 285.684875 C360.686890 293.777130 361.482849 315.106720 349.423920 324.122803 C367.537750 329.904877 385.651550 335.686920 403.765381 341.468994 C408.744171 343.058228 414.728210 345.974945 414.584167 351.199219 C412.069183 442.413116 409.554169 533.627014 407.039154 624.840881 C406.890472 630.233826 406.059021 636.723633 401.158508 638.979919 C401.015961 630.148987 388.685455 628.268677 379.909760 629.265015 C334.732788 634.394043 289.555786 639.523071 244.378784 644.652161 C228.402161 646.466003 213.353455 637.672485 199.680847 629.210693 C151.344574 599.295837 103.008308 569.381042 54.672016 539.466248 C50.780674 537.057922 46.673969 534.410400 44.804249 530.233459 C43.390064 527.074219 43.467106 523.476807 43.574558 520.017212 C45.433033 460.176575 48.697422 400.379608 53.364140 340.692291 C44.715183 339.172028 35.842312 337.570129 28.323978 333.032471 C20.805637 328.494812 14.833074 320.296600 15.528722 311.542664 C16.197094 303.131927 22.517536 296.470703 27.067951 289.365692 C34.318172 278.045197 37.387524 264.632141 42.431232 252.171005 C47.474949 239.709869 55.526035 227.269562 68.168144 222.698318 C30.574238 208.964890 2.747098 171.760559 0.193990 131.818222 C-2.359126 91.875900 20.504704 51.431396 56.044117 33.023289 C69.250542 26.182846 80.672371 15.920478 94.625374 10.771206 C106.292122 6.465667 118.973366 6.018594 131.402802 5.618699 M235.551147 369.825409 C178.081543 342.496582 120.964729 314.425903 64.219719 285.622711 C60.159687 360.463135 56.099644 435.303528 52.039616 510.143921 C51.813099 514.319275 51.601276 518.611633 52.924213 522.578308 C55.749866 531.050720 64.567879 535.729858 72.573387 539.689331 C126.319160 566.271667 177.603943 597.827209 225.558777 633.821106 C230.682190 545.902588 234.013916 457.879669 235.551147 369.825409 M390.341431 619.528076 C392.822205 619.250061 395.556580 618.841919 397.160889 616.929443 C398.565308 615.255188 398.700012 612.890686 398.769104 610.706482 C401.456146 525.763794 404.143158 440.821075 406.830200 355.878387 C406.918884 353.075043 405.806030 349.145325 403.048157 349.655884 C350.547974 356.355774 298.047821 363.055695 245.547638 369.755585 C244.183746 369.929657 242.446442 370.499542 242.447968 371.874481 C242.546631 460.349487 239.584015 548.827881 233.567169 637.098083 C285.825256 631.241394 338.083344 625.384766 390.341431 619.528076 M141.982483 270.656952 C145.758698 276.836853 154.194153 277.783905 161.432587 278.020172 C229.861725 280.253784 298.426453 278.325195 366.621857 272.248596 C374.638306 271.534271 383.201630 270.539001 389.328705 265.320496 C399.607178 256.566193 398.384033 240.671097 396.689392 227.276596 C389.861633 173.309830 389.868103 118.482079 396.708557 64.516907 C397.772125 56.126408 390.716034 48.446445 382.694000 45.767159 C374.671967 43.087872 365.947937 44.159748 357.546112 45.129742 C298.245605 51.975994 238.187073 52.235870 178.829529 45.903053 C170.545959 45.019287 162.117889 44.012466 153.939301 45.596432 C145.760712 47.180397 137.705170 51.840847 134.270508 59.430401 C132.200653 64.004166 131.974915 69.167770 131.811951 74.185448 C129.781036 136.720337 132.371948 199.404846 139.556610 261.558838 C139.920044 264.702850 140.332275 267.956268 141.982483 270.656952 M102.368477 251.095276 C109.974403 256.150818 117.874474 260.763763 126.015419 264.903076 C117.813332 198.006683 116.158669 130.309158 121.082726 63.091930 C121.622383 55.725086 116.361732 48.915031 109.879173 45.374126 C103.396614 41.833221 95.857475 40.895878 88.522789 40.021816 C81.708321 65.377991 82.759041 92.094376 83.874962 118.326553 C85.386345 153.854858 86.925667 189.381989 88.492943 224.907883 C88.747551 230.679276 89.083885 236.728775 92.086357 241.664261 C94.523827 245.671021 98.462639 248.499146 102.368462 251.095276 M26.143642 178.779007 C30.362820 184.078903 35.925388 188.117004 41.414928 192.086288 C51.461567 199.350632 61.508213 206.614975 71.554848 213.879318 C75.455223 157.703217 59.874851 100.663406 70.487968 45.361237 C61.551533 47.715260 52.912083 51.194363 44.838230 55.690380 C39.454777 58.688210 34.247646 62.202847 30.293888 66.928978 C25.465145 72.700996 22.775860 79.945793 20.692661 87.177193 C15.191876 106.271980 13.319997 126.405365 15.206288 146.186951 C16.309711 157.758667 18.903782 169.684692 26.143650 178.779007 M165.872375 34.462212 C176.788177 34.077938 187.580780 36.476761 198.404724 37.941395 C221.202789 41.026299 244.334015 39.972794 267.315460 38.913307 C300.460114 37.385277 333.604736 35.857246 366.749390 34.329220 C360.305695 24.390585 349.127106 18.292755 337.610107 15.525716 C326.093109 12.758676 314.099304 12.950061 302.256378 13.157062 C242.599884 14.199801 182.943390 15.242537 123.286919 16.285275 C112.669731 16.470852 100.917336 17.111820 93.383766 24.595438 C99.115837 36.366299 113.962303 40.758545 127.036171 40.063171 C140.110046 39.367802 152.788116 34.922821 165.872375 34.462215 M328.786499 297.199310 C321.748871 296.291534 312.189850 295.945435 310.845184 288.978058 C301.676086 305.319519 284.168549 315.868958 265.843353 319.780884 C247.518158 323.692780 228.389740 321.609100 210.136292 317.375031 C197.322479 314.402710 182.357330 307.557007 181.459900 294.433655 C181.123993 289.521790 174.519073 288.295837 169.599060 288.476562 C158.938507 288.868225 148.277954 289.259857 137.617401 289.651489 C133.951294 289.786163 129.780884 290.169189 127.560738 293.089752 C125.074394 296.360504 126.504555 301.372009 129.552612 304.126831 C132.600708 306.881622 136.771027 307.946686 140.763977 308.914124 C174.337341 317.048462 208.208130 324.808136 242.696564 326.779663 C277.184998 328.751190 312.601257 324.685822 343.906219 310.079742 C345.381500 309.391418 347.082428 308.298279 346.962128 306.674805 C346.883820 305.617981 346.026154 304.804199 345.197113 304.144165 C340.492340 300.398407 334.750885 297.968658 328.786499 297.199310 M379.425568 346.049957 C369.506317 341.632843 359.546875 337.305939 349.548920 333.069977 C342.134247 329.928558 333.804199 326.802765 326.254120 329.603119 C282.952484 345.663818 234.941681 338.716888 189.315338 331.560516 C200.773926 338.670563 212.637817 345.127350 224.830200 350.889069 C231.386505 353.987335 238.172394 356.921844 245.383667 357.684906 C250.081665 358.182037 254.822601 357.740753 259.526184 357.299469 C299.492645 353.549622 339.459106 349.799805 379.425568 346.049988 M300.576477 288.423218 C264.664734 288.950562 228.752991 289.477905 192.841248 290.005219 C190.845001 290.034546 191.708984 293.272736 193.235046 294.559967 C207.280426 306.407135 226.737213 309.775574 245.099823 309.110107 C265.299164 308.378082 286.301086 302.732727 300.576477 288.423218 M47.558094 325.950775 C49.464558 327.299103 52.305790 326.160248 53.575886 324.200806 C54.845982 322.241364 54.968861 319.777985 55.038258 317.443970 C55.379200 305.977661 55.369709 294.500977 55.009815 283.035248 C54.931141 280.529205 53.517262 277.053192 51.169102 277.932190 C50.555698 278.161804 50.098591 278.673187 49.667377 279.166168 C46.345814 282.963562 43.024250 286.760986 39.702694 290.558380 C36.507305 294.211548 33.254398 297.956573 31.436123 302.456573 C29.617840 306.956543 29.470127 312.432465 32.289951 316.382721 C35.813305 321.318542 42.606861 322.449127 47.558094 325.950775 M103.856331 263.883118 C94.672829 260.544983 86.549599 254.352829 80.897499 246.382034 C78.923653 243.598450 77.020958 240.418365 73.831093 239.206268 C68.803795 237.295975 63.480640 241.245071 60.162022 245.477066 C57.233128 249.212082 54.873005 253.392288 53.187870 257.829529 C52.686756 259.149017 52.238819 260.563171 52.494083 261.951324 C52.934025 264.343689 55.388401 265.925842 57.801670 266.230957 C60.214939 266.536102 62.629353 265.867676 65.004448 265.342407 C75.272423 263.071533 86.112892 263.440704 96.202599 266.404846 C100.237740 267.590302 104.599342 269.179688 108.501701 267.611481 C108.163185 265.549652 105.820076 264.596924 103.856331 263.883118 M83.832588 275.200684 C80.373924 273.648193 76.321053 271.478180 73.095467 273.470184 C73.713829 274.866882 75.142174 275.694122 76.481865 276.427856 C88.348198 282.926910 100.214531 289.425964 112.080849 295.925049 C114.563911 297.284973 117.214470 294.240143 117.951958 291.506805 C118.689461 288.773468 119.208107 285.385132 121.842628 284.348633 C124.678459 283.232941 125.149727 278.973846 123.204079 276.628418 C121.258415 274.282959 117.852196 273.657288 114.834831 274.084106 C111.817451 274.510925 109.001274 275.803101 106.080849 276.673615 C98.805687 278.842194 90.758354 278.309418 83.832588 275.200684 z"
     id="path15"
     style="fill:#00ff00;fill-opacity:1" /><path
     class="selected"
     fill="#000000"
     opacity="1.000000"
     stroke="none"
     d=" M308.825165 542.207886 C307.804016 542.468506 306.782867 542.729126 305.761719 542.989807 C305.261078 542.224792 305.081146 541.256836 305.273468 540.363037 C306.404297 539.164734 308.856232 540.171997 308.818024 541.819214 z"
     id="path17"
     style="fill:#00ff00;fill-opacity:1" /><path
     class="selected"
     fill="#000000"
     opacity="1.000000"
     stroke="none"
     d=" M363.606354 422.323730 C370.416290 422.651764 376.176270 428.880676 376.747803 435.674500 C377.319366 442.468353 373.204193 449.202362 367.269836 452.558868 C359.026489 457.221344 348.878113 455.725128 339.407715 455.778076 C317.689362 455.899567 296.091461 464.889282 274.737122 460.927826 C273.475067 460.693695 272.143311 460.373077 271.250366 459.450989 C270.009003 458.169067 270.003662 456.169403 270.076172 454.386444 C270.757812 437.625458 271.439453 420.864471 272.121063 404.103485 C272.300446 399.693024 272.678040 394.818115 275.852509 391.751007 C279.244934 388.473358 284.528137 388.485260 289.244110 388.591949 C308.663239 389.031219 328.124512 387.589172 347.266846 384.292572 C354.990204 382.962494 363.866394 381.614410 369.864929 386.657928 C374.268066 390.360046 375.697693 396.459229 376.504272 402.155060 C377.040192 405.939606 377.392212 409.926666 375.966034 413.472961 C374.539856 417.019226 370.791168 419.914978 367.053223 419.116333 C363.751495 418.410889 359.649261 415.404572 357.750854 418.196533 C356.839813 419.382690 357.813232 421.212982 359.179901 421.820587 C360.546539 422.428162 362.112427 422.251770 363.606354 422.323730 M285.331268 417.298828 C310.233734 415.342377 335.136200 413.385925 360.038666 411.429474 C361.803467 411.290802 363.639038 411.130524 365.160248 410.225189 C366.681488 409.319855 367.773987 407.430389 367.181427 405.762299 C365.967133 402.344086 359.346558 402.602661 359.398285 398.975586 C362.041046 397.739471 364.923706 397.018799 367.837219 396.865814 C368.005890 395.756958 368.174561 394.648071 368.343201 393.539215 C360.562866 393.247498 352.772430 393.224304 344.990479 393.469757 C335.432526 393.771210 325.892487 394.477539 316.355896 395.183655 C306.415375 395.919708 296.474884 396.655731 286.534393 397.391785 C283.486603 397.617462 279.737152 398.386047 278.926208 401.332611 C281.178558 402.812317 284.091339 402.652222 286.777740 402.437927 C305.232849 400.965729 323.687988 399.493530 342.143127 398.021332 C348.101837 397.545990 355.778534 398.131104 357.665039 403.803284 C358.301971 405.718323 356.155273 408.605804 354.904205 407.022217 C352.747772 404.292542 348.476440 405.489227 345.156738 406.528809 C325.964447 412.538940 303.993469 404.388336 285.536987 412.377289 C283.937561 411.575012 282.338135 410.772705 280.738678 409.970398 C278.388123 411.475372 278.607666 415.618744 281.104095 416.866913 C282.387634 417.508667 283.900635 417.411224 285.331268 417.298828 M365.251831 437.695343 C361.627960 439.814758 357.217316 440.551086 353.101501 439.723724 C351.398010 439.381287 349.579620 438.635223 348.850616 437.057983 C348.121613 435.480713 349.381989 433.125824 351.080536 433.492096 C351.850769 432.585571 351.254089 431.075745 350.217773 430.491638 C349.181458 429.907562 347.915527 429.978943 346.729218 430.066925 C328.032227 431.453827 309.335266 432.840698 290.638275 434.227570 C287.472107 434.462402 284.033752 434.812622 281.733612 437.001007 C278.914886 439.682770 278.839874 444.075806 278.960205 447.964600 C279.024567 450.044189 279.980621 452.888092 282.016541 452.459198 C308.368103 446.907745 335.381378 444.504333 362.299103 445.316284 C365.187225 445.403412 367.669739 442.744263 368.029602 439.877319 C368.389496 437.010376 367.010193 434.145813 365.026001 432.045380 C364.132080 431.099030 363.023834 430.233337 361.726288 430.128143 C360.428711 430.022949 358.990875 430.985870 359.017395 432.287415 C359.077148 435.217346 364.951538 434.780243 365.251831 437.695343 M324.105499 420.689117 C321.982758 420.101471 319.657684 422.390656 320.212250 424.522308 C323.172455 424.797943 326.146576 424.924133 329.119476 424.900238 C329.855103 424.894318 330.632965 424.867157 331.253723 424.472382 C332.921082 423.412140 332.004639 420.525299 330.166718 419.799866 C328.328796 419.074432 326.268127 419.766937 324.416901 420.457733 M277.003540 429.140717 C278.978333 431.275726 282.324066 428.732178 285.206543 428.345520 C286.923492 428.115204 285.668579 425.392212 284.076965 424.708252 C282.283356 423.937500 280.177704 423.479858 278.411438 424.311340 C276.645172 425.142822 275.677979 427.707581 277.003540 429.140717 z"
     id="path19"
     style="fill:#00ff00;fill-opacity:1" /><path
     class="selected"
     d="m 349.88548,597.26864 c -0.0496,1.11029 -1.87628,1.23706 -2.51611,0.32825 -0.63983,-0.90875 -0.43015,-2.14203 -0.1937,-3.22803 0.80466,-0.83575 2.31152,-0.8374 3.11801,-0.003 0.80652,0.83386 0.75452,2.33985 -0.10763,3.11615 z"
     id="path21"
     inkscape:connector-curvature="0"
     style="opacity:1;fill:#00ff00;stroke:none;fill-opacity:1" /><path
     class="selected"
     fill="#000000"
     opacity="1.000000"
     stroke="none"
     d=" M297.245056 579.533020 C291.326508 577.735596 285.606079 575.286560 280.220367 572.244568 C282.510651 577.362366 286.578003 581.664368 291.559448 584.237793 C294.493134 585.753296 299.147369 585.997925 300.075531 582.829041 C301.131927 579.222290 306.346802 577.701050 309.176727 580.174133 C310.674744 575.963501 314.579071 573.164246 318.266174 570.638672 C332.951263 560.579651 347.636383 550.520630 362.321472 540.461609 C363.932709 534.051270 349.135040 533.008362 350.609436 526.565186 C358.856537 527.622375 366.552216 532.410645 371.144379 539.342102 C366.214874 541.200684 362.287292 544.952515 358.318054 548.416565 C348.390045 557.080933 337.405090 564.436157 326.454346 571.765381 C321.995728 574.749512 317.537109 577.733582 313.078522 580.717712 C307.608978 584.378357 302.139465 588.039062 296.669952 591.699768 C295.519684 592.469604 294.245728 593.272888 292.867767 593.142151 C291.445923 593.007263 290.325775 591.918762 289.333710 590.891296 C284.425385 585.808044 279.569977 580.673645 274.768555 575.489258 C272.927948 573.501892 271.013062 570.514221 272.644165 568.351562 C273.964966 566.600281 276.634735 566.860962 278.761200 567.399109 C285.059723 568.993225 291.131897 571.478882 296.740295 574.758911 C298.393372 568.298279 304.215759 563.913513 309.658844 560.060608 C318.670837 553.681458 327.682831 547.302368 336.694824 540.923218 C340.139984 538.484558 345.223846 536.153259 348.115753 539.227905 C335.602997 549.005737 322.619812 558.181580 309.226105 566.712952 C304.156799 569.941956 298.586151 573.674194 297.245056 579.533020 z"
     id="path23"
     style="fill:#00ff00;fill-opacity:1" /><path
     class="selected"
     fill="#000000"
     opacity="1.000000"
     stroke="none"
     d=" M273.236176 583.363464 C274.556702 582.098755 277.219482 583.440735 276.988495 585.254578 C276.607300 586.572266 274.889954 587.299500 273.678375 586.656189 C272.466797 586.012878 272.107178 584.182983 272.985229 583.129028 z"
     id="path25"
     style="fill:#00ff00;fill-opacity:1" /><path
     class="selected"
     fill="#000000"
     opacity="1.000000"
     stroke="none"
     d=" M283.741058 537.939209 C283.134216 539.858887 284.894592 541.643921 286.473480 542.893188 C289.565765 545.339905 292.734680 547.829590 296.458496 549.126465 C300.182312 550.423340 304.630646 550.328003 307.727234 547.886780 C317.770203 539.969238 328.362762 532.748962 339.403412 526.295044 C341.240753 527.454224 339.470734 530.230713 337.719269 531.515930 C325.775513 540.280151 313.831726 549.044373 301.887970 557.808594 C300.568512 558.776794 299.079193 559.794006 297.451965 559.619202 C295.824738 559.444336 294.471741 557.315552 295.594971 556.125305 C296.843414 554.802368 295.061554 552.824829 293.485291 551.917053 C289.714050 549.745178 285.942841 547.573303 282.171631 545.401428 C280.036316 544.171692 277.825714 542.873230 276.449890 540.828979 C275.074066 538.784729 274.813843 535.763672 276.538574 534.003784 C278.823151 531.672546 282.737274 532.836914 285.665222 534.279480 C291.195557 537.004272 296.491028 540.205444 301.473755 543.836060 C301.468933 545.617249 298.716919 545.454590 297.124939 544.655701 C292.663635 542.416870 288.202332 540.178040 283.741058 537.939209 z"
     id="path27"
     style="fill:#00ff00;fill-opacity:1" /><path
     class="selected"
     fill="#000000"
     opacity="1.000000"
     stroke="none"
     d=" M332.778809 578.257141 C333.538940 576.430481 335.197784 575.161743 336.785706 573.981506 C345.835175 567.255310 354.884644 560.529175 363.934113 553.802979 C365.825470 552.397217 369.574982 551.801880 369.575439 554.158508 C369.575592 554.988037 368.953949 555.670471 368.365662 556.255371 C359.793640 564.778259 349.898865 571.968140 339.144928 577.488281 C337.149139 578.512756 334.669159 579.465088 332.778809 578.257141 z"
     id="path31"
     style="fill:#00ff00;fill-opacity:1" /><path
     class="selected"
     fill="#000000"
     opacity="1.000000"
     stroke="none"
     d=" M292.998871 266.074188 C295.564484 263.798279 298.647095 262.108643 301.945770 261.170227 C305.194672 260.245972 308.599609 260.050568 311.972076 259.860443 C320.381317 259.386414 328.790558 258.912384 337.199799 258.438354 C341.906494 258.173035 346.668518 257.910980 351.301086 258.784332 C352.058624 262.143158 347.628876 264.070496 344.219055 264.548584 C329.347137 266.633759 314.337189 267.527466 299.346344 268.419342 C296.929047 268.563171 293.880676 268.329468 292.998871 266.074188 z"
     id="path35"
     style="fill:#00ff00;fill-opacity:1" /><path
     class="selected"
     fill="#000000"
     opacity="1.000000"
     stroke="none"
     d=" M367.244812 575.316040 C367.059662 577.645752 364.288757 579.363831 362.119659 578.493896 C362.005249 576.661987 363.072266 574.810059 364.714539 573.990295 C365.552856 574.429993 366.391144 574.869690 367.229462 575.309387 z"
     id="path37"
     style="fill:#00ff00;fill-opacity:1" /><path
     class="selected"
     fill="#000000"
     opacity="1.000000"
     stroke="none"
     d=" M284.891205 439.874084 C302.683075 437.847992 320.526855 436.277924 338.399109 435.165955 C339.682922 435.086090 341.259155 435.163879 341.850494 436.306152 C342.848480 438.233917 339.918213 439.731628 337.758728 439.952576 C324.178284 441.342163 310.597870 442.731720 297.017456 444.121277 C292.399963 444.593750 286.417236 444.257660 284.891205 439.874084 z"
     id="path39"
     style="fill:#00ff00;fill-opacity:1" /><path
     class="selected"
     fill="#000000"
     opacity="1.000000"
     stroke="none"
     d=" M305.434479 600.840515 C305.353485 599.690491 305.272491 598.540466 305.191528 597.390381 C306.360291 596.493286 307.777466 595.696167 309.231384 595.934937 C310.685303 596.173706 311.879395 597.950745 311.054657 599.171692 C309.631989 600.467834 307.624878 601.096008 305.717102 600.842285 z"
     id="path41"
     style="fill:#00ff00;fill-opacity:1" /><path
     class="selected"
     fill="#000000"
     opacity="1.000000"
     stroke="none"
     d=" M301.234528 367.124481 C311.252350 366.711823 321.282928 366.609009 331.307098 366.816254 C334.410217 366.880402 335.768951 371.405457 333.936035 373.910278 C332.103149 376.415070 328.597015 377.042206 325.506927 376.750702 C322.416870 376.459198 319.393250 375.459930 316.290192 375.526703 C313.086029 375.595642 310.028595 376.793945 306.892883 377.456268 C303.757202 378.118591 300.205811 378.154907 297.667450 376.198364 C295.129120 374.241791 294.561218 369.730011 297.261871 368.004395 C298.419006 367.265045 299.862488 367.181000 301.234528 367.124481 z"
     id="path43"
     style="fill:#00ff00;fill-opacity:1" /><path
     class="selected"
     fill="#000000"
     opacity="1.000000"
     stroke="none"
     d=" M326.918304 584.758362 C323.507416 586.293701 319.858856 587.299683 316.143097 587.729431 C317.169739 583.294495 323.763855 581.476257 326.918304 584.758362 z"
     id="path45"
     style="fill:#00ff00;fill-opacity:1" /><path
     class="selected"
     fill="#000000"
     opacity="1.000000"
     stroke="none"
     d=" M280.025635 553.380676 C285.411255 557.264893 290.796906 561.149170 296.182526 565.033386 C286.628082 567.233521 275.927795 560.614685 273.630066 551.083252 C275.912170 550.572327 278.128876 552.012695 280.025635 553.380676 z"
     id="path47"
     style="fill:#00ff00;fill-opacity:1" /><path
     class="selected"
     fill="#000000"
     opacity="1.000000"
     stroke="none"
     d=" M342.007355 580.454529 C342.636566 580.239380 343.319153 580.049011 343.957245 580.236084 C344.447083 580.379700 344.865112 580.750671 345.065948 581.219971 C342.145050 585.560669 336.711914 588.069702 331.513489 587.478699 C334.322205 584.279480 337.979065 581.831726 342.007355 580.454529 z"
     id="path49"
     style="fill:#00ff00;fill-opacity:1" /><path
     class="selected"
     fill="#000000"
     opacity="1.000000"
     stroke="none"
     d=" M311.599915 484.737518 C310.384125 483.150238 313.433716 481.763824 315.391510 482.169525 C319.946106 483.113373 324.274994 485.129120 327.928772 488.007538 C330.120026 483.715118 335.762604 481.563202 340.255676 483.306335 C337.751343 486.167236 335.247009 489.028137 332.742676 491.889008 C336.983551 494.244019 341.757141 495.633087 346.599487 495.921234 C348.349091 494.969849 346.460083 492.320007 344.556274 491.735352 C342.652466 491.150696 340.044922 490.162720 340.480347 488.219330 C340.847137 486.582245 343.231720 486.373016 344.674072 487.229919 C346.116425 488.086853 347.137421 489.566071 348.651184 490.289398 C350.644867 491.242065 353.284607 490.526855 354.524658 488.697998 C355.764709 486.869141 355.452209 484.152130 353.829315 482.652588 C360.461914 482.268616 367.094513 481.884674 373.727081 481.500702 C371.993713 483.350098 371.166321 486.011597 371.545624 488.517792 C371.744049 489.828735 372.249634 491.174347 371.854736 492.440063 C371.459869 493.705750 369.511780 494.470581 368.834259 493.330902 C366.504333 489.411743 360.484467 491.210266 356.663177 493.697479 C350.700317 497.578583 345.126160 502.056458 340.050934 507.042480 C340.879211 509.324738 344.040588 509.904022 346.261841 508.923828 C348.483093 507.943634 350.041718 505.937714 351.731720 504.194519 C354.330200 501.514252 357.430389 499.322021 360.823486 497.765442 C362.745819 496.883606 366.251953 497.793365 365.167480 499.609100 C362.728149 501.362335 360.339508 505.360504 363.006836 506.742401 C364.695038 507.617035 368.114441 507.646545 367.162445 509.292328 C364.810699 511.896912 360.614716 510.568939 357.203186 509.746735 C353.791687 508.924530 348.792542 510.198395 349.181488 513.685974 C354.685486 514.673950 359.769592 517.832825 363.093353 522.329773 C362.449463 524.562195 359.109192 523.844666 357.108978 522.662598 C341.888062 513.667542 326.667175 504.672546 311.446259 495.677490 C309.020996 496.650482 310.933502 500.321381 313.081940 501.808929 C324.436127 509.670410 337.820435 514.525879 348.265808 523.559937 C344.673798 524.992371 340.584900 523.591125 337.206146 521.710022 C333.827423 519.828857 330.614410 517.421326 326.820007 516.674988 C323.025604 515.928650 318.352112 517.587463 317.395630 521.334412 C315.678223 518.169617 316.808441 513.767578 319.837982 511.821594 C316.970276 509.983063 313.416626 509.243530 310.053528 509.785370 C308.430847 510.046814 306.752777 510.670746 305.800049 512.010071 C304.847321 513.349365 304.986664 515.529297 306.416962 516.339111 C311.892792 519.439270 317.368652 522.539429 322.844513 525.639587 C324.754486 526.720947 326.967468 528.466003 326.397522 530.585571 C323.329865 532.678833 319.377655 530.091675 316.204529 528.161987 C313.031433 526.232239 307.603455 525.792480 306.802704 529.418945 C305.779297 534.053711 300.142944 535.707947 295.463440 536.501892 C295.383148 534.366516 295.302826 532.231201 295.222534 530.095825 C291.837646 528.149841 288.452789 526.203857 285.067902 524.257935 C283.333893 523.260986 281.536713 522.206116 280.432556 520.538330 C279.328430 518.870544 279.161102 516.399170 280.606964 515.017090 C281.644928 514.024902 283.332428 513.719116 284.000702 512.448181 C285.148926 510.264465 282.356934 508.233673 280.261902 506.930634 C278.166901 505.627625 276.681152 501.910858 279.056549 501.244202 C281.685730 500.506317 284.401184 499.724091 286.496857 497.973328 C288.592560 496.222595 289.901520 493.218536 288.857788 490.695129 C286.246857 493.381622 282.865387 495.310669 279.224060 496.190918 C279.051453 491.318634 281.736145 486.449188 285.948425 483.994446 C291.030518 481.032837 297.546722 481.693604 302.959381 483.996185 C308.372040 486.298767 313.014404 490.048676 317.904602 493.317444 C322.579102 496.442047 327.529663 499.153534 332.679688 501.409943 C335.113037 502.476074 339.095367 502.585419 339.257904 499.933746 C330.356201 494.316895 321.114380 489.239136 311.599915 484.737518 M296.804108 526.798157 C297.120331 528.472229 298.978790 529.681763 300.637543 529.293152 C303.390869 528.692810 304.713074 525.031494 303.427094 522.523987 C302.141144 520.016479 298.982697 518.858032 296.202850 519.320435 C295.161987 519.493591 294.113525 519.885437 293.402405 520.665039 C291.534424 522.712830 293.866730 526.690247 296.565918 526.059875 M290.108246 489.560303 C290.402771 491.994171 293.992065 491.543427 296.406769 491.967346 C299.449310 492.501495 301.690552 495.473083 304.764099 495.782623 C306.048126 493.366241 304.748322 490.199371 302.520569 488.610443 C300.292816 487.021484 297.419983 486.676331 294.683777 486.646515 C292.624847 486.624084 289.860870 487.516144 290.108246 489.560303 M305.374146 503.275970 C302.833984 501.803833 299.825928 504.107605 297.804413 506.236725 C296.428833 507.685486 295.053284 509.134247 293.677704 510.583038 C298.627991 512.795288 305.191315 508.695007 305.374146 503.275970 M296.373779 499.024994 C291.973206 498.024384 287.073425 501.281189 286.292328 505.725983 C290.673279 507.785919 296.576996 503.861816 296.373749 499.024994 M288.171356 514.288818 C287.309845 515.062988 286.924164 516.328674 287.207520 517.451721 C289.391998 518.637268 292.292236 515.576172 290.990570 513.458801 C290.360138 512.284546 288.124634 512.994629 288.287415 514.317505 z"
     id="path51"
     style="fill:#00ff00;fill-opacity:1" /><path
     class="selected"
     fill="#000000"
     opacity="1.000000"
     stroke="none"
     d=" M164.396149 264.255066 C164.605591 261.985077 166.814545 260.352448 169.044403 259.878601 C171.609894 259.333466 174.401550 259.965729 176.481781 261.563110 C175.783844 264.612885 173.959839 267.681519 170.986206 268.653961 C168.012543 269.626404 164.108704 267.370453 164.396149 264.255066 z"
     id="path55"
     style="fill:#00ff00;fill-opacity:1" /><path
     class="selected"
     fill="#000000"
     opacity="1.000000"
     stroke="none"
     d=" M195.701782 30.071022 C209.264191 30.645987 222.826599 31.220953 236.389008 31.795919 C238.100372 31.868467 240.353363 32.466309 240.351654 34.179199 C226.609558 35.657696 212.702148 35.594154 198.974121 33.990154 C197.875000 33.861732 196.704681 33.692158 195.874817 32.960136 C195.044952 32.228111 194.810883 30.727404 195.701782 30.071024 z"
     id="path59"
     style="fill:#00ff00;fill-opacity:1" /><path
     class="selected"
     fill="#000000"
     opacity="1.000000"
     stroke="none"
     d=" M335.181396 591.953735 C335.817322 592.170288 336.486969 592.409485 336.915009 592.927246 C337.266144 593.351929 337.409180 593.940979 337.291962 594.479431 C330.585632 594.825623 323.879303 595.171753 317.172974 595.517883 C318.158356 592.223145 321.701935 590.229187 325.131470 589.975342 C328.561005 589.721497 331.926056 590.845154 335.181396 591.953735 z"
     id="path61"
     style="fill:#00ff00;fill-opacity:1" /><path
     class="selected"
     fill="#000000"
     opacity="1.000000"
     stroke="none"
     d=" M377.234772 255.359283 C378.553375 256.375153 379.915405 257.613007 380.127625 259.263947 C380.355408 261.035950 379.159210 262.692902 377.769562 263.815735 C374.201080 266.699158 368.501190 267.085114 365.158966 263.942261 C361.816711 260.799377 362.409241 254.220078 366.631622 252.425781 C370.176208 250.919510 374.183868 253.008789 377.234772 255.359283 z"
     id="path63"
     style="fill:#00ff00;fill-opacity:1" /><path
     class="selected"
     fill="#000000"
     opacity="1.000000"
     stroke="none"
     d=" M273.635254 602.068848 C272.644440 601.055664 271.964813 599.742188 271.710022 598.348145 C271.434113 596.838684 271.660187 595.241272 272.347046 593.869141 C276.502899 594.296265 280.578522 595.491821 284.306549 597.377441 C284.825531 599.926880 283.219513 602.682556 280.813354 603.672302 C278.407196 604.662048 275.454285 603.929016 273.635254 602.068848 z"
     id="path65"
     style="fill:#00ff00;fill-opacity:1" /><path
     class="selected"
     fill="#000000"
     opacity="1.000000"
     stroke="none"
     d=" M392.654449 361.627380 C393.593018 362.020874 394.583405 362.474854 395.120178 363.339539 C395.609497 364.127777 395.628418 365.120361 395.502502 366.039551 C394.776703 371.338013 388.604797 375.444458 383.701477 373.309601 C378.798126 371.174774 378.178467 362.831207 383.034637 360.591156 C386.053375 359.198669 389.588562 360.342041 392.654449 361.627380 z"
     id="path67"
     style="fill:#00ff00;fill-opacity:1" /><path
     class="selected"
     fill="#000000"
     opacity="1.000000"
     stroke="none"
     d=" M351.829956 586.021667 C349.570129 587.317139 347.310272 588.612671 345.050446 589.908142 C346.236328 586.427490 347.422211 582.946777 348.608063 579.466125 C352.428711 577.756470 357.208679 578.453979 360.381470 581.184082 C357.807281 583.233582 354.852875 584.803833 351.714020 585.790894 z"
     id="path71"
     style="fill:#00ff00;fill-opacity:1" /><path
     class="selected"
     fill="#000000"
     opacity="1.000000"
     stroke="none"
     d=" M367.503235 374.654480 C362.372620 375.055115 357.242004 375.455750 352.111420 375.856384 C350.971985 375.945374 349.767456 376.022552 348.744354 375.513123 C346.975983 374.632568 346.435516 372.413513 346.090515 370.468414 C353.421417 368.078796 361.442017 367.848907 368.897736 369.814728 C369.977875 370.099518 371.210663 370.592010 371.485626 371.674683 C371.953888 373.518280 369.399597 374.506409 367.503235 374.654480 z"
     id="path73"
     style="fill:#00ff00;fill-opacity:1" /></svg>